#!OML:ASF Y:\EmotionMaleHayes\Project 1\Capture day 1\Session 1\Male1.ASF
:FULLY-SPECIFIED
:DEGREES
474
root 49.5658 16.8621 -0.641521 711.612 93.7721 715.232
lowerback 9.33139 2.77841 -2.37141
upperback 4.72167 3.66671 -0.440991
thorax -0.439976 1.87716 0.521658
lowerneck -21.5038 -1.54731 1.83714
upperneck 22.5273 -2.95496 1.17446
head 10.8199 -0.968044 -0.323034
rclavicle 4.32357e-014 -2.14687e-014
rhumerus -43.3914 18.8913 -92.0571
rradius 65.3538
rwrist -14.1159
rhand -20.6681 -18.3797
rfingers 7.12502
rthumb 5.69483 -48.2832
lclavicle 4.32357e-014 -2.14687e-014
lhumerus -48.7469 -25.179 96.0669
lradius 60.6076
lwrist 22.6649
lhand -28.3949 -34.0806
lfingers 7.12502
lthumb -1.76732 -4.10817
rfemur -2.00806 -3.3595 18.2154
rtibia 18.1039
rfoot -14.6715 -4.53138
rtoes 7.6672
lfemur -4.29788 -0.38828 -16.862
ltibia 23.8791
lfoot -13.748 9.85606
ltoes -20.8337
475
root 49.5762 16.859 -0.650177 706.672 93.9108 710.296
lowerback 9.21776 2.76669 -2.69343
upperback 4.78642 3.63304 -0.505827
thorax -0.323778 1.85588 0.645655
lowerneck -21.6226 -1.61228 1.69989
upperneck 22.634 -3.01699 1.2193
head 10.8844 -0.99941 -0.295284
rclavicle 4.4329e-014 -1.09332e-014
rhumerus -43.3493 18.9843 -92.038
rradius 65.2029
rwrist -14.0453
rhand -20.5701 -18.3685
rfingers 7.12502
rthumb 5.7894 -48.2694
lclavicle 4.4329e-014 -1.09332e-014
lhumerus -48.6277 -25.0225 96.1215
lradius 60.4282
lwrist 22.6639
lhand -28.4454 -33.9272
lfingers 7.12502
lthumb -1.81605 -3.9552
rfemur -1.87043 -3.67154 17.6685
rtibia 18.0217
rfoot -14.6232 -4.29084
rtoes 6.55452
lfemur -4.18644 -0.513739 -17.3976
ltibia 23.8066
lfoot -13.8858 9.82029
ltoes -20.5952
476
root 49.5783 16.8595 -0.652438 708.252 93.9414 711.853
lowerback 9.23214 2.75134 -2.60154
upperback 4.75553 3.6174 -0.475348
thorax -0.360052 1.849 0.625622
lowerneck -21.3338 -1.56363 1.64635
upperneck 22.3919 -2.95514 1.36073
head 10.7446 -0.96482 -0.222249
rclavicle -8.29926e-015 -2.5842e-015
rhumerus -43.4032 18.9881 -92.0939
rradius 65.1107
rwrist -13.9522
rhand -20.44 -18.4566
rfingers 7.12502
rthumb 5.91504 -48.354
lclavicle -8.29926e-015 -2.5842e-015
lhumerus -48.6545 -24.8897 96.177
lradius 60.3114
lwrist 22.7675
lhand -28.5621 -33.8854
lfingers 7.12502
lthumb -1.92876 -3.91438
rfemur -1.86345 -3.67286 17.781
rtibia 17.9879
rfoot -14.5627 -4.31935
rtoes 5.67312
lfemur -4.2285 -0.532505 -17.2943
ltibia 23.9216
lfoot -14.1878 9.66782
ltoes -19.8491
477
root 49.5835 16.859 -0.655685 707.435 94.0309 711.037
lowerback 9.21211 2.74783 -2.67287
upperback 4.77902 3.60949 -0.488314
thorax -0.32763 1.84416 0.654583
lowerneck -21.3567 -1.59227 1.73376
upperneck 22.4056 -2.98974 1.22373
head 10.7496 -0.990357 -0.291623
rclavicle -6.05299e-014 1.55052e-014
rhumerus -43.3761 18.9235 -92.1023
rradius 65.0938
rwrist -13.8604
rhand -20.3505 -18.5584
rfingers 7.12502
rthumb 6.00141 -48.4534
lclavicle -6.05299e-014 1.55052e-014
lhumerus -48.5827 -24.7237 96.1844
lradius 60.1698
lwrist 22.8082
lhand -28.6813 -33.8775
lfingers 7.12502
lthumb -2.04396 -3.90752
rfemur -1.78939 -3.7372 17.6601
rtibia 17.9331
rfoot -13.9841 -4.34119
rtoes 3.9812
lfemur -4.2081 -0.554724 -17.4098
ltibia 24.0001
lfoot -14.3495 9.5804
ltoes -19.0123
478
root 49.5954 16.862 -0.648269 699.005 94.1011 702.548
lowerback 9.2516 2.88433 -3.37252
upperback 4.6736 3.72649 -0.65561
thorax -0.491515 1.89533 0.854114
lowerneck -21.151 -1.64254 1.74781
upperneck 22.3489 -3.0626 1.25226
head 10.6903 -1.02012 -0.292373
rclavicle 3.03147e-014 -8.94531e-015
rhumerus -43.5842 18.6235 -92.1778
rradius 65.0763
rwrist -13.6952
rhand -20.1603 -18.6432
rfingers 7.12502
rthumb 6.18503 -48.5329
lclavicle 3.03147e-014 -8.94531e-015
lhumerus -48.7339 -24.5908 96.2334
lradius 60.0692
lwrist 22.6865
lhand -28.8317 -33.7355
lfingers 7.12502
lthumb -2.18913 -3.76703
rfemur -1.82472 -3.36736 17.021
rtibia 17.945
rfoot -14.535 -4.60229
rtoes 6.26863
lfemur -4.18662 -0.494717 -18.016
ltibia 23.9389
lfoot -14.2974 9.6126
ltoes -18.1706
